<svg version="1.0" xmlns="http://www.w3.org/2000/svg" width="1306.667" height="1306.667" viewBox="0 0 980 980"><path d="M456 1.1C352.5 8.6 256.2 47.4 176 113.9c-15 12.3-50.1 47.5-62.2 62.1C25.7 282.8-13.2 416.3 4 552.5 15.9 645.9 54.1 732.6 116.4 807c9.8 11.7 37 39.3 49.6 50.4 132.8 116.6 315.8 153.1 482.5 96.2 89.5-30.5 170-87.9 228.1-162.7 54-69.4 88.5-152.3 99.3-238.4 17.8-141.1-24.7-279.8-118.5-386.5-11.2-12.8-38.6-39.8-50.9-50.1C730.2 51.7 640 13.3 540 2.5 522.6.6 473.6-.2 456 1.1zm57.5 253.8c9.8 2.5 26.1 10.5 33.5 16.4 6.4 5.2 231.7 211.2 243.3 222.5 13.5 13.2 22.3 27.8 26.8 44.7 3.1 11.4 3.1 33.6 0 45-10.2 38-41.7 64.7-80.4 68.4-16.1 1.5-32-1.2-46.3-7.9-12.2-5.6-18-10-40.4-30.6-11.3-10.4-49.6-45.4-85-77.9-35.5-32.4-66.6-60.9-69.2-63.3l-4.7-4.4-90.2 82.8c-49.6 45.6-92.1 84.4-94.5 86.4-10 8.2-25.9 15.9-38.6 18.4-10 2.1-27.7 2-37.6 0-28.4-5.8-52.4-25-64.8-51.9-5.5-11.8-7.8-22.9-7.8-37.5 0-15 2.4-25.9 8.4-38.7 5.3-11.5 11.1-19.2 21.6-29.3 19.7-18.8 244.3-224.2 249.4-228.1 10.6-7.9 27-14.8 40-16.8 9.4-1.4 27.1-.5 36.5 1.8z" fill="#C70101"/></svg>