<?xml version="1.0" standalone="no"?>
<!DOCTYPE svg PUBLIC "-//W3C//DTD SVG 20010904//EN"
 "http://www.w3.org/TR/2001/REC-SVG-20010904/DTD/svg10.dtd">
<svg version="1.0" xmlns="http://www.w3.org/2000/svg"
 width="980.000000pt" height="980.000000pt" viewBox="0 0 980.000000 980.000000"
 preserveAspectRatio="xMidYMid meet">

<g transform="translate(0.000000,980.000000) scale(0.100000,-0.100000)"
fill="#C70101" stroke="none">
<path d="M4560 9789 c-1035 -75 -1998 -463 -2800 -1128 -150 -123 -501 -475
-622 -621 -881 -1068 -1270 -2403 -1098 -3765 119 -934 501 -1801 1124 -2545
98 -117 370 -393 496 -504 1328 -1166 3158 -1531 4825 -962 895 305 1700 879
2281 1627 540 694 885 1523 993 2384 178 1411 -247 2798 -1185 3865 -112 128
-386 398 -509 501 -763 642 -1665 1026 -2665 1134 -174 19 -664 27 -840 14z
m575 -2538 c98 -25 261 -105 335 -164 64 -52 2317 -2112 2433 -2225 135 -132
223 -278 268 -447 31 -114 31 -336 0 -450 -102 -380 -417 -647 -804 -684 -161
-15 -320 12 -463 79 -122 56 -180 100 -404 306 -113 104 -496 454 -850 779
-355 324 -666 609 -692 633 l-47 44 -902 -828 c-496 -456 -921 -844 -945 -864
-100 -82 -259 -159 -386 -184 -100 -21 -277 -20 -376 0 -284 58 -524 250 -648
519 -55 118 -78 229 -78 375 0 150 24 259 84 387 53 115 111 192 216 293 197
188 2443 2242 2494 2281 106 79 270 148 400 168 94 14 271 5 365 -18z"/>
</g>
</svg>
